<svg width="65" height="92" viewBox="0 0 65 92" fill="none" xmlns="http://www.w3.org/2000/svg">
<path d="M51.5 81.5H13.5L10.5 78.5L11.5 55L14.5 53H50.5L53 55L55 78.5L51.5 81.5Z" fill="#1299C1"/>
<path d="M50.5 7.5V18.5L56 24.5L61.5 36V9L60 6.5H53L50.5 7.5Z" fill="#1299C1"/>
<path d="M14 7.01695V18.2034L9 24.3051L4 36V8.54237L5.36364 6H11.7273L14 7.01695Z" fill="#1299C1"/>
<path d="M50.8341 18.0012V8.68323C50.8341 7.26855 51.9916 6.11108 53.4062 6.11108H58.6445C60.0592 6.11108 61.2167 7.26875 61.2167 8.68323V38.2093" stroke="black" stroke-width="2" stroke-miterlimit="22.9256"/>
<path d="M3.66748 15.7274V8.42102C3.66748 7.00634 4.82494 5.84888 6.23962 5.84888H11.4779C12.8926 5.84888 14.05 7.00634 14.05 8.42102V17.5271M3.66748 38.1881V20.9638" stroke="black" stroke-width="2" stroke-miterlimit="22.9256" stroke-linecap="round"/>
<path d="M20.2034 81.5086L13.7705 81.4958C12.3808 81.493 10.3403 80.3677 10.4734 77.871L11.6192 56.3707C11.6932 54.9827 13.0416 53.0737 14.4315 53.0737H50.4092C51.7991 53.0737 53.1586 55.0428 53.238 56.4304L54.4823 78.1746C54.5617 79.5622 52.5153 81.5732 50.4092 81.569L25.8873 81.52" stroke="black" stroke-width="2" stroke-miterlimit="22.9256" stroke-linecap="round"/>
<path d="M62.5498 58.6741L63.9894 82.6331C64.2063 86.2422 61.0637 90.6736 57.1666 90.6736H7.12982C4.16312 90.6736 0.81861 86.3936 1.00766 82.7755L3.0966 42.7933C3.96938 26.0889 15.4606 11.802 32.1878 11.802C48.9151 11.802 60.5573 25.1647 61.5397 41.8628L62.1765 52.6874" stroke="black" stroke-width="2" stroke-miterlimit="22.9256" stroke-linecap="round"/>
<path d="M12.151 40.0109C12.151 28.9054 21.2526 19.9026 32.4799 19.9026C43.7073 19.9026 52.8089 28.9054 52.8089 40.0109" stroke="black" stroke-width="2" stroke-miterlimit="22.9256" stroke-linecap="round"/>
<path d="M20.617 14.6357C20.5641 14.1702 20.537 13.6967 20.537 13.2167C20.537 6.46961 25.9046 1 32.5259 1C39.1472 1 44.5148 6.46961 44.5148 13.2167C44.5148 13.7118 44.4859 14.2 44.4297 14.6797" stroke="black" stroke-width="2" stroke-miterlimit="22.9256"/>
<path d="M26.2225 12.893C26.2225 9.45349 29.07 6.66528 32.5827 6.66528C36.0952 6.66528 38.9428 9.45349 38.9428 12.893" stroke="black" stroke-width="2" stroke-miterlimit="22.9256"/>
<path d="M53.9603 59.8398H11.9392" stroke="black" stroke-width="2" stroke-miterlimit="22.9256"/>
<path d="M47.2806 59.8047V64.5419" stroke="black" stroke-width="2" stroke-miterlimit="22.9256" stroke-linecap="round"/>
</svg>
