<svg width="57" height="56" viewBox="0 0 57 56" fill="none" xmlns="http://www.w3.org/2000/svg">
<circle cx="28.5" cy="28" r="28" fill="#5D8ABC"/>
<path d="M32.6712 40.0507L31.6876 39.2794L32.6712 40.0507ZM24.3288 40.0507L23.3452 40.8221L24.3288 40.0507ZM28.5 43.5082V42.2582V43.5082ZM39.25 24.913C39.25 26.7183 38.3052 29.1558 36.7968 31.8225C35.3161 34.4403 33.4011 37.0943 31.6876 39.2794L33.6548 40.8221C35.4059 38.5891 37.4053 35.8246 38.9728 33.0533C40.5127 30.3309 41.75 27.4086 41.75 24.913H39.25ZM25.3124 39.2794C23.5989 37.0943 21.6839 34.4403 20.2032 31.8225C18.6948 29.1558 17.75 26.7183 17.75 24.913H15.25C15.25 27.4086 16.4873 30.3309 18.0272 33.0533C19.5947 35.8246 21.5941 38.5891 23.3452 40.8221L25.3124 39.2794ZM17.75 24.913C17.75 18.3838 22.6477 13.25 28.5 13.25V10.75C21.0975 10.75 15.25 17.1789 15.25 24.913H17.75ZM28.5 13.25C34.3523 13.25 39.25 18.3838 39.25 24.913H41.75C41.75 17.1789 35.9025 10.75 28.5 10.75V13.25ZM31.6876 39.2794C30.7564 40.4668 30.1525 41.2301 29.6147 41.7186C29.1305 42.1585 28.8259 42.2582 28.5 42.2582V44.7582C29.634 44.7582 30.5112 44.2817 31.2957 43.5691C32.0267 42.9051 32.7784 41.9396 33.6548 40.8221L31.6876 39.2794ZM23.3452 40.8221C24.2216 41.9396 24.9733 42.9051 25.7043 43.5691C26.4888 44.2817 27.366 44.7582 28.5 44.7582V42.2582C28.1741 42.2582 27.8695 42.1585 27.3853 41.7186C26.8475 41.2301 26.2436 40.4668 25.3124 39.2794L23.3452 40.8221ZM22.75 25.5C22.75 28.6756 25.3244 31.25 28.5 31.25V28.75C26.7051 28.75 25.25 27.2949 25.25 25.5H22.75ZM28.5 31.25C31.6756 31.25 34.25 28.6756 34.25 25.5H31.75C31.75 27.2949 30.2949 28.75 28.5 28.75V31.25ZM34.25 25.5C34.25 22.3244 31.6756 19.75 28.5 19.75V22.25C30.2949 22.25 31.75 23.7051 31.75 25.5H34.25ZM28.5 19.75C25.3244 19.75 22.75 22.3244 22.75 25.5H25.25C25.25 23.7051 26.7051 22.25 28.5 22.25V19.75Z" fill="white"/>
</svg>
